#!OML:ASF Y:\EmotionMaleHayes\Project 1\Capture day 1\Session 1\Male1.ASF
:FULLY-SPECIFIED
:DEGREES
58
root -30.7026 17.0541 0.712564 68.8546 85.0093 68.5439
lowerback 3.68224 2.12371 -7.11231
upperback 0.512113 2.5545 -0.742153
thorax -1.81235 1.3307 3.07744
lowerneck -16.8782 5.6108 6.99418
upperneck 28.6642 8.42548 -5.62358
head 12.9286 3.98908 -1.93281
rclavicle -3.84369e-015 -1.52816e-014
rhumerus -37.436 -0.279048 -86.1988
rradius 33.1794
rwrist 2.47807
rhand -9.33195 -32.1033
rfingers 7.12502
rthumb 16.6269 -61.4111
lclavicle -3.84369e-015 -1.52816e-014
lhumerus -31.2082 -8.6266 92.1588
lradius 22.2927
lwrist -18.7525
lhand -18.0865 -30.2666
lfingers 7.12502
lthumb 8.18688 -0.445255
rfemur 7.59281 -5.02598 8.13729
rtibia 3.10399
rfoot -15.7519 -5.75919
rtoes 5.63182
lfemur 9.5691 -0.737398 -20.5648
ltibia -2.09839
lfoot -10.9111 11.4661
ltoes -7.83952
59
root -30.7027 17.0533 0.711171 68.496 84.96 68.2191
lowerback 3.66331 2.1109 -7.17638
upperback 0.562129 2.5395 -0.726307
thorax -1.75172 1.32073 3.13233
lowerneck -17.0034 5.51046 6.90884
upperneck 28.539 8.26642 -5.60955
head 12.8855 3.90475 -1.93781
rclavicle 2.9007e-014 1.81391e-015
rhumerus -37.3612 -0.142662 -86.2231
rradius 33.1381
rwrist 2.47103
rhand -9.26989 -32.032
rfingers 7.12502
rthumb 16.6866 -61.3348
lclavicle 2.9007e-014 1.81391e-015
lhumerus -31.1755 -8.53116 92.1618
lradius 22.2818
lwrist -18.8263
lhand -17.6102 -30.3703
lfingers 7.12502
lthumb 8.64649 -0.567346
rfemur 7.61015 -4.97375 8.09231
rtibia 3.12321
rfoot -15.7785 -5.73408
rtoes 6.22503
lfemur 9.53654 -0.378433 -20.5095
ltibia -1.98142
lfoot -10.6047 11.1529
ltoes -8.99576
60
root -30.7034 17.0544 0.71007 68.1386 84.9536 67.862
lowerback 3.65121 2.08793 -7.20452
upperback 0.552279 2.50841 -0.689255
thorax -1.75469 1.30563 3.18848
lowerneck -16.7257 5.47379 6.62446
upperneck 28.1199 8.16034 -5.28253
head 12.6171 3.87202 -1.78938
rclavicle -1.89311e-014 -1.98785e-014
rhumerus -37.3881 0.0152286 -86.238
rradius 33.1115
rwrist 2.49816
rhand -9.21063 -32.1556
rfingers 7.12502
rthumb 16.7437 -61.4536
lclavicle -1.89311e-014 -1.98785e-014
lhumerus -31.2274 -8.53844 92.2291
lradius 22.273
lwrist -18.7429
lhand -16.9935 -30.4814
lfingers 7.12502
lthumb 9.24162 -0.703906
rfemur 7.58584 -4.99468 8.08779
rtibia 3.15905
rfoot -15.7784 -5.6946
rtoes 5.94456
lfemur 9.53736 -0.444835 -20.542
ltibia -1.97399
lfoot -10.8255 11.2241
ltoes -8.60271
61
root -30.7044 17.057 0.709176 68.1112 84.9501 67.8278
lowerback 3.66769 2.08083 -7.2034
upperback 0.52336 2.49596 -0.697335
thorax -1.79216 1.30125 3.17901
lowerneck -16.4013 5.39339 6.43741
upperneck 27.6847 7.98164 -5.00628
head 12.339 3.81219 -1.69156
rclavicle -8.08495e-015 -1.55052e-014
rhumerus -37.4409 0.0820986 -86.2895
rradius 33.0744
rwrist 2.54578
rhand -9.23146 -32.2115
rfingers 7.12502
rthumb 16.7236 -61.5111
lclavicle -8.08495e-015 -1.55052e-014
lhumerus -31.3238 -8.61111 92.2688
lradius 22.305
lwrist -18.6855
lhand -17.4612 -30.6166
lfingers 7.12502
lthumb 8.79035 -0.819711
rfemur 7.55947 -5.02361 8.08518
rtibia 3.17835
rfoot -15.7171 -5.68581
rtoes 5.66425
lfemur 9.52707 -0.467093 -20.5561
ltibia -1.95923
lfoot -11.0473 11.2432
ltoes -8.24564
62
root -30.7049 17.0563 0.708666 68.6154 84.9514 68.3646
lowerback 3.71057 2.05851 -7.21326
upperback 0.526142 2.46234 -0.710994
thorax -1.80945 1.28513 3.171
lowerneck -16.4053 5.31221 6.6305
upperneck 27.6453 7.89064 -5.29306
head 12.3408 3.75539 -1.84732
rclavicle -1.28791e-014 1.35174e-014
rhumerus -37.4099 0.100639 -86.3321
rradius 32.9969
rwrist 2.65259
rhand -9.24866 -32.0733
rfingers 7.12502
rthumb 16.7071 -61.3743
lclavicle -1.28791e-014 1.35174e-014
lhumerus -31.3829 -8.62139 92.2736
lradius 22.3429
lwrist -18.7343
lhand -18.913 -30.4885
lfingers 7.12502
lthumb 7.38912 -0.637585
rfemur 7.65316 -4.9376 8.09437
rtibia 3.07205
rfoot -15.7135 -5.76182
rtoes 6.13382
lfemur 9.64017 -0.777638 -20.6677
ltibia -2.11506
lfoot -11.0953 11.4803
ltoes -8.05298
63
root -30.706 17.0546 0.709392 68.536 85.0687 68.3316
lowerback 3.766 2.01558 -7.15429
upperback 0.54476 2.40388 -0.639137
thorax -1.81559 1.25519 3.21467
lowerneck -16.5221 5.24577 6.65537
upperneck 27.6777 7.8277 -5.44782
head 12.3817 3.70723 -1.91806
rclavicle 8.27752e-015 1.5704e-014
rhumerus -37.3547 0.321084 -86.3982
rradius 32.9892
rwrist 2.68042
rhand -9.31096 -32.0774
rfingers 7.12502
rthumb 16.6471 -61.3835
lclavicle 8.27752e-015 1.5704e-014
lhumerus -31.364 -8.5207 92.3075
lradius 22.2836
lwrist -18.8182
lhand -17.7453 -30.6338
lfingers 7.12502
lthumb 8.51615 -0.825562
rfemur 7.76959 -4.81132 8.27336
rtibia 2.94773
rfoot -15.772 -5.92753
rtoes 6.1141
lfemur 9.76961 -1.11082 -20.6254
ltibia -2.27515
lfoot -11.1338 11.7399
ltoes -7.72726
64
root -30.7072 17.0558 0.709245 68.8983 85.0629 68.6898
lowerback 3.7785 1.98962 -7.21152
upperback 0.546922 2.36624 -0.617768
thorax -1.81945 1.23692 3.27071
lowerneck -16.6733 5.18491 6.47504
upperneck 27.7298 7.72269 -5.2558
head 12.408 3.66108 -1.82931
rclavicle -1.87292e-015 -2.54941e-014
rhumerus -37.3301 0.524666 -86.491
rradius 33.0537
rwrist 2.67229
rhand -9.35602 -32.3062
rfingers 7.12502
rthumb 16.6037 -61.6159
lclavicle -1.87292e-015 -2.54941e-014
lhumerus -31.2974 -8.57961 92.3662
lradius 22.1581
lwrist -18.7494
lhand -17.3258 -30.6316
lfingers 7.12502
lthumb 8.92095 -0.840153
rfemur 7.76649 -4.80023 8.25927
rtibia 2.94621
rfoot -15.7847 -6.00807
rtoes 5.46486
lfemur 9.74651 -1.11862 -20.6436
ltibia -2.25524
lfoot -11.1234 11.7246
ltoes -7.89892
65
root -30.7081 17.0571 0.706668 69.916 84.9044 69.6661
lowerback 3.75166 1.98214 -7.36549
upperback 0.534002 2.35187 -0.68825
thorax -1.81931 1.23143 3.28511
lowerneck -16.8291 5.04885 6.38682
upperneck 27.7807 7.52474 -5.20318
head 12.4394 3.56603 -1.82431
rclavicle 1.31602e-014 -1.99282e-014
rhumerus -37.3058 0.542795 -86.5542
rradius 33.0637
rwrist 2.66217
rhand -9.33202 -32.4115
rfingers 7.12502
rthumb 16.6268 -61.7193
lclavicle 1.31602e-014 -1.99282e-014
lhumerus -31.2674 -8.77032 92.4042
lradius 22.0968
lwrist -18.5921
lhand -17.3615 -30.6334
lfingers 7.12502
lthumb 8.88651 -0.840542
rfemur 7.72644 -4.85834 8.01424
rtibia 2.94581
rfoot -15.7101 -5.99388
rtoes 5.38448
lfemur 9.67571 -1.14115 -20.8832
ltibia -2.2361
lfoot -11.0052 11.7439
ltoes -7.77736
66
root -30.71 17.057 0.704842 69.9272 84.8324 69.6414
lowerback 3.73355 1.97171 -7.43349
upperback 0.516712 2.33597 -0.707972
thorax -1.82715 1.22473 3.30384
lowerneck -16.8545 4.92327 6.36711
upperneck 27.6912 7.35957 -5.28771
head 12.3997 3.4778 -1.88008
rclavicle -2.23633e-015 2.98177e-016
rhumerus -37.279 0.602315 -86.5836
rradius 33.0162
rwrist 2.65043
rhand -9.2468 -32.3379
rfingers 7.12502
rthumb 16.7089 -61.6388
lclavicle -2.23633e-015 2.98177e-016
lhumerus -31.2931 -8.7794 92.4059
lradius 22.0755
lwrist -18.5635
lhand -17.3135 -30.6248
lfingers 7.12502
lthumb 8.93279 -0.833871
rfemur 7.67066 -4.90463 7.91195
rtibia 2.95498
rfoot -15.6846 -5.98229
rtoes 4.91809
lfemur 9.62032 -1.15087 -20.9802
ltibia -2.24939
lfoot -10.8824 11.8162
ltoes -7.60654
67
root -30.7117 17.0593 0.705215 69.4752 84.8004 69.2172
lowerback 3.7802 1.9622 -7.50368
upperback 0.515905 2.31649 -0.677395
thorax -1.85602 1.21651 3.37428
lowerneck -16.8778 4.85736 6.30164
upperneck 27.6421 7.27352 -5.28652
head 12.3756 3.43124 -1.88243
rclavicle -2.54693e-014 7.50412e-015
rhumerus -37.2533 0.689833 -86.5631
rradius 32.9421
rwrist 2.7131
rhand -9.14271 -32.2457
rfingers 7.12502
rthumb 16.8091 -61.5382
lclavicle -2.54693e-014 7.50412e-015
lhumerus -31.3382 -8.54052 92.3819
lradius 22.0796
lwrist -18.7471
lhand -17.2056 -30.5884
lfingers 7.12502
lthumb 9.03691 -0.801931
rfemur 7.66559 -4.91647 7.89067
rtibia 2.9925
rfoot -15.7457 -5.99408
rtoes 4.08053
lfemur 9.65068 -1.11725 -20.9954
ltibia -2.26716
lfoot -10.9734 11.8504
ltoes -7.69385
68
root -30.7132 17.0619 0.706985 69.1028 84.8037 68.8938
lowerback 3.85893 1.96117 -7.53681
upperback 0.522717 2.30717 -0.661876
thorax -1.894 1.21327 3.40694
lowerneck -16.9442 4.78655 6.19351
upperneck 27.6222 7.15814 -5.17589
head 12.3633 3.37983 -1.84014
rclavicle 3.43525e-015 -2.04748e-014
rhumerus -37.1968 0.718064 -86.5724
rradius 32.8363
rwrist 2.75076
rhand -9.1536 -32.1489
rfingers 7.12502
rthumb 16.7986 -61.4422
lclavicle 3.43525e-015 -2.04748e-014
lhumerus -31.3757 -8.33298 92.3251
lradius 22.1274
lwrist -18.9511
lhand -17.1886 -30.5813
lfingers 7.12502
lthumb 9.05333 -0.795583
rfemur 7.70985 -4.92008 7.91593
rtibia 2.99022
rfoot -15.7661 -5.9955
rtoes 3.92903
lfemur 9.71935 -1.09045 -20.9649
ltibia -2.27472
lfoot -11.0866 11.8406
ltoes -7.50203
69
root -30.7149 17.0597 0.707429 68.8063 84.8151 68.5361
lowerback 3.84491 1.94492 -7.52513
upperback 0.490156 2.28534 -0.675472
thorax -1.91642 1.20379 3.38754
lowerneck -17.0048 4.7085 6.12914
upperneck 27.5863 7.02789 -5.09852
head 12.346 3.32209 -1.8204
rclavicle 1.77477e-014 -1.66979e-014
rhumerus -37.1312 0.706242 -86.6321
rradius 32.733
rwrist 2.82266
rhand -9.084 -32.103
rfingers 7.12502
rthumb 16.8656 -61.3906
lclavicle 1.77477e-014 -1.66979e-014
lhumerus -31.3939 -8.22936 92.2394
lradius 22.1676
lwrist -19.0491
lhand -17.1501 -30.663
lfingers 7.12502
lthumb 9.0905 -0.878909
rfemur 7.6306 -4.88382 7.96134
rtibia 2.97922
rfoot -15.734 -5.99646
rtoes 4.14518
lfemur 9.6353 -1.07278 -20.93
ltibia -2.22268
lfoot -11.1034 11.8651
ltoes -7.56599
70
root -30.716 17.0578 0.70641 68.7189 84.8571 68.439
lowerback 3.86426 1.92163 -7.4969
upperback 0.488093 2.25366 -0.658225
thorax -1.9254 1.18807 3.39106
lowerneck -17.1669 4.64816 5.98592
upperneck 27.6543 6.92778 -4.94543
head 12.3869 3.2775 -1.75193
rclavicle -2.26118e-015 -1.58034e-014
rhumerus -37.0611 0.714632 -86.6396
rradius 32.6816
rwrist 2.87598
rhand -8.90595 -32.1875
rfingers 7.12502
rthumb 17.037 -61.4604
lclavicle -2.26118e-015 -1.58034e-014
lhumerus -31.3213 -8.12255 92.2012
lradius 22.088
lwrist -19.1213
lhand -17.0075 -30.8042
lfingers 7.12502
lthumb 9.2281 -1.02615
rfemur 7.64244 -4.84187 8.02106
rtibia 2.9257
rfoot -15.6433 -5.99412
rtoes 4.54284
lfemur 9.603 -1.07905 -20.8845
ltibia -2.17987
lfoot -10.9048 11.9152
ltoes -8.3592
71
root -30.7159 17.0658 0.707431 68.9878 84.9119 68.9825
lowerback 4.15533 1.91146 -7.51004
upperback 0.577467 2.21891 -0.619957
thorax -1.99388 1.17132 3.43284
lowerneck -17.3557 4.57676 5.77431
upperneck 27.7015 6.79759 -4.69718
head 12.4166 3.2234 -1.6403
rclavicle 3.04172e-014 -6.70898e-015
rhumerus -37.0388 0.767135 -86.6451
rradius 32.7357
rwrist 2.84429
rhand -8.86421 -32.3596
rfingers 7.12502
rthumb 17.0771 -61.6291
lclavicle 3.04172e-014 -6.70898e-015
lhumerus -31.192 -8.06169 92.2024
lradius 21.8636
lwrist -19.1658
lhand -16.9088 -30.9398
lfingers 7.12502
lthumb 9.32333 -1.16594
rfemur 8.02617 -4.78769 8.06661
rtibia 2.79807
rfoot -15.563 -6.01441
rtoes 4.79783
lfemur 9.92269 -1.14446 -20.8525
ltibia -2.2523
lfoot -10.7124 11.9159
ltoes -8.53502
